<mxfile host="app.diagrams.net" agent="Mozilla/5.0 (Windows NT 10.0; Win64; x64) AppleWebKit/537.36 (KHTML, like Gecko) Chrome/137.0.0.0 Safari/537.36 Edg/137.0.0.0" version="27.1.6">
  <diagram name="PÃ¡gina-1" id="z-Su0UbD9s_pZlRG6YDd">
    <mxGraphModel dx="1492" dy="604" grid="1" gridSize="10" guides="1" tooltips="1" connect="1" arrows="1" fold="1" page="1" pageScale="1" pageWidth="827" pageHeight="1169" math="0" shadow="0">
      <root>
        <mxCell id="0" />
        <mxCell id="1" parent="0" />
        <mxCell id="Kporj4aN2ORfp6ikIdKQ-3" value="" style="edgeStyle=orthogonalEdgeStyle;rounded=0;orthogonalLoop=1;jettySize=auto;html=1;" edge="1" parent="1" source="Kporj4aN2ORfp6ikIdKQ-1" target="Kporj4aN2ORfp6ikIdKQ-2">
          <mxGeometry relative="1" as="geometry" />
        </mxCell>
        <mxCell id="Kporj4aN2ORfp6ikIdKQ-1" value="inicio" style="ellipse;whiteSpace=wrap;html=1;" vertex="1" parent="1">
          <mxGeometry x="354" y="10" width="120" height="80" as="geometry" />
        </mxCell>
        <mxCell id="Kporj4aN2ORfp6ikIdKQ-5" value="" style="edgeStyle=orthogonalEdgeStyle;rounded=0;orthogonalLoop=1;jettySize=auto;html=1;" edge="1" parent="1" source="Kporj4aN2ORfp6ikIdKQ-2" target="Kporj4aN2ORfp6ikIdKQ-4">
          <mxGeometry relative="1" as="geometry" />
        </mxCell>
        <mxCell id="Kporj4aN2ORfp6ikIdKQ-2" value="pacientes" style="shape=parallelogram;perimeter=parallelogramPerimeter;whiteSpace=wrap;html=1;fixedSize=1;" vertex="1" parent="1">
          <mxGeometry x="354" y="110" width="120" height="60" as="geometry" />
        </mxCell>
        <mxCell id="Kporj4aN2ORfp6ikIdKQ-7" value="" style="edgeStyle=orthogonalEdgeStyle;rounded=0;orthogonalLoop=1;jettySize=auto;html=1;" edge="1" parent="1" source="Kporj4aN2ORfp6ikIdKQ-4" target="Kporj4aN2ORfp6ikIdKQ-6">
          <mxGeometry relative="1" as="geometry" />
        </mxCell>
        <mxCell id="Kporj4aN2ORfp6ikIdKQ-10" value="" style="edgeStyle=orthogonalEdgeStyle;rounded=0;orthogonalLoop=1;jettySize=auto;html=1;" edge="1" parent="1" source="Kporj4aN2ORfp6ikIdKQ-4" target="Kporj4aN2ORfp6ikIdKQ-9">
          <mxGeometry relative="1" as="geometry" />
        </mxCell>
        <mxCell id="Kporj4aN2ORfp6ikIdKQ-4" value="miguel esta en pacientes" style="rhombus;whiteSpace=wrap;html=1;" vertex="1" parent="1">
          <mxGeometry x="341" y="190" width="146" height="80" as="geometry" />
        </mxCell>
        <mxCell id="Kporj4aN2ORfp6ikIdKQ-15" style="edgeStyle=orthogonalEdgeStyle;rounded=0;orthogonalLoop=1;jettySize=auto;html=1;entryX=1;entryY=0.5;entryDx=0;entryDy=0;" edge="1" parent="1" source="Kporj4aN2ORfp6ikIdKQ-6" target="Kporj4aN2ORfp6ikIdKQ-13">
          <mxGeometry relative="1" as="geometry">
            <Array as="points">
              <mxPoint x="600" y="370" />
            </Array>
          </mxGeometry>
        </mxCell>
        <mxCell id="Kporj4aN2ORfp6ikIdKQ-6" value="pacientes" style="shape=document;whiteSpace=wrap;html=1;boundedLbl=1;" vertex="1" parent="1">
          <mxGeometry x="540" y="190" width="120" height="80" as="geometry" />
        </mxCell>
        <mxCell id="Kporj4aN2ORfp6ikIdKQ-8" value="no" style="text;html=1;align=center;verticalAlign=middle;whiteSpace=wrap;rounded=0;" vertex="1" parent="1">
          <mxGeometry x="480" y="200" width="60" height="30" as="geometry" />
        </mxCell>
        <mxCell id="Kporj4aN2ORfp6ikIdKQ-12" value="" style="edgeStyle=orthogonalEdgeStyle;rounded=0;orthogonalLoop=1;jettySize=auto;html=1;" edge="1" parent="1" source="Kporj4aN2ORfp6ikIdKQ-9" target="Kporj4aN2ORfp6ikIdKQ-11">
          <mxGeometry relative="1" as="geometry" />
        </mxCell>
        <mxCell id="Kporj4aN2ORfp6ikIdKQ-9" value="agregar &quot;Miguel&quot; en pacientes" style="whiteSpace=wrap;html=1;" vertex="1" parent="1">
          <mxGeometry x="160" y="200" width="120" height="60" as="geometry" />
        </mxCell>
        <mxCell id="Kporj4aN2ORfp6ikIdKQ-14" value="" style="edgeStyle=orthogonalEdgeStyle;rounded=0;orthogonalLoop=1;jettySize=auto;html=1;" edge="1" parent="1" source="Kporj4aN2ORfp6ikIdKQ-11" target="Kporj4aN2ORfp6ikIdKQ-13">
          <mxGeometry relative="1" as="geometry" />
        </mxCell>
        <mxCell id="Kporj4aN2ORfp6ikIdKQ-11" value="pacientes" style="shape=document;whiteSpace=wrap;html=1;boundedLbl=1;" vertex="1" parent="1">
          <mxGeometry x="160" y="330" width="120" height="80" as="geometry" />
        </mxCell>
        <mxCell id="Kporj4aN2ORfp6ikIdKQ-17" value="" style="edgeStyle=orthogonalEdgeStyle;rounded=0;orthogonalLoop=1;jettySize=auto;html=1;" edge="1" parent="1" source="Kporj4aN2ORfp6ikIdKQ-13" target="Kporj4aN2ORfp6ikIdKQ-16">
          <mxGeometry relative="1" as="geometry" />
        </mxCell>
        <mxCell id="Kporj4aN2ORfp6ikIdKQ-13" value="ingrese el numero de consultorio&amp;nbsp; de los pacientes" style="shape=parallelogram;perimeter=parallelogramPerimeter;whiteSpace=wrap;html=1;fixedSize=1;" vertex="1" parent="1">
          <mxGeometry x="350" y="340" width="160" height="60" as="geometry" />
        </mxCell>
        <mxCell id="Kporj4aN2ORfp6ikIdKQ-19" value="" style="edgeStyle=orthogonalEdgeStyle;rounded=0;orthogonalLoop=1;jettySize=auto;html=1;" edge="1" parent="1" source="Kporj4aN2ORfp6ikIdKQ-16" target="Kporj4aN2ORfp6ikIdKQ-18">
          <mxGeometry relative="1" as="geometry" />
        </mxCell>
        <mxCell id="Kporj4aN2ORfp6ikIdKQ-24" value="" style="edgeStyle=orthogonalEdgeStyle;rounded=0;orthogonalLoop=1;jettySize=auto;html=1;" edge="1" parent="1" source="Kporj4aN2ORfp6ikIdKQ-16" target="Kporj4aN2ORfp6ikIdKQ-23">
          <mxGeometry relative="1" as="geometry" />
        </mxCell>
        <mxCell id="Kporj4aN2ORfp6ikIdKQ-16" value="103 en consultorios" style="rhombus;whiteSpace=wrap;html=1;" vertex="1" parent="1">
          <mxGeometry x="365" y="440" width="130" height="80" as="geometry" />
        </mxCell>
        <mxCell id="Kporj4aN2ORfp6ikIdKQ-22" value="" style="edgeStyle=orthogonalEdgeStyle;rounded=0;orthogonalLoop=1;jettySize=auto;html=1;" edge="1" parent="1" source="Kporj4aN2ORfp6ikIdKQ-18" target="Kporj4aN2ORfp6ikIdKQ-21">
          <mxGeometry relative="1" as="geometry" />
        </mxCell>
        <mxCell id="Kporj4aN2ORfp6ikIdKQ-18" value="agregar 104 a consultorios" style="whiteSpace=wrap;html=1;" vertex="1" parent="1">
          <mxGeometry x="160" y="450" width="120" height="60" as="geometry" />
        </mxCell>
        <mxCell id="Kporj4aN2ORfp6ikIdKQ-20" value="si" style="text;html=1;align=center;verticalAlign=middle;whiteSpace=wrap;rounded=0;" vertex="1" parent="1">
          <mxGeometry x="305" y="450" width="60" height="30" as="geometry" />
        </mxCell>
        <mxCell id="Kporj4aN2ORfp6ikIdKQ-26" style="edgeStyle=orthogonalEdgeStyle;rounded=0;orthogonalLoop=1;jettySize=auto;html=1;entryX=0.5;entryY=0;entryDx=0;entryDy=0;" edge="1" parent="1" source="Kporj4aN2ORfp6ikIdKQ-21" target="Kporj4aN2ORfp6ikIdKQ-25">
          <mxGeometry relative="1" as="geometry" />
        </mxCell>
        <mxCell id="Kporj4aN2ORfp6ikIdKQ-21" value="consultorios" style="shape=document;whiteSpace=wrap;html=1;boundedLbl=1;" vertex="1" parent="1">
          <mxGeometry x="160" y="580" width="120" height="80" as="geometry" />
        </mxCell>
        <mxCell id="Kporj4aN2ORfp6ikIdKQ-27" style="edgeStyle=orthogonalEdgeStyle;rounded=0;orthogonalLoop=1;jettySize=auto;html=1;entryX=0.5;entryY=0;entryDx=0;entryDy=0;exitX=0.333;exitY=1;exitDx=0;exitDy=0;exitPerimeter=0;" edge="1" parent="1" source="Kporj4aN2ORfp6ikIdKQ-23" target="Kporj4aN2ORfp6ikIdKQ-25">
          <mxGeometry relative="1" as="geometry">
            <Array as="points">
              <mxPoint x="580" y="620" />
              <mxPoint x="430" y="620" />
            </Array>
          </mxGeometry>
        </mxCell>
        <mxCell id="Kporj4aN2ORfp6ikIdKQ-23" value="consultorios" style="shape=document;whiteSpace=wrap;html=1;boundedLbl=1;" vertex="1" parent="1">
          <mxGeometry x="540" y="440" width="120" height="80" as="geometry" />
        </mxCell>
        <mxCell id="Kporj4aN2ORfp6ikIdKQ-29" value="" style="edgeStyle=orthogonalEdgeStyle;rounded=0;orthogonalLoop=1;jettySize=auto;html=1;" edge="1" parent="1" source="Kporj4aN2ORfp6ikIdKQ-25" target="Kporj4aN2ORfp6ikIdKQ-28">
          <mxGeometry relative="1" as="geometry" />
        </mxCell>
        <mxCell id="Kporj4aN2ORfp6ikIdKQ-31" value="" style="edgeStyle=orthogonalEdgeStyle;rounded=0;orthogonalLoop=1;jettySize=auto;html=1;" edge="1" parent="1" source="Kporj4aN2ORfp6ikIdKQ-25" target="Kporj4aN2ORfp6ikIdKQ-30">
          <mxGeometry relative="1" as="geometry" />
        </mxCell>
        <mxCell id="Kporj4aN2ORfp6ikIdKQ-25" value="&quot;Andres&quot; esta en pacientes" style="rhombus;whiteSpace=wrap;html=1;" vertex="1" parent="1">
          <mxGeometry x="360" y="670" width="140" height="80" as="geometry" />
        </mxCell>
        <mxCell id="Kporj4aN2ORfp6ikIdKQ-34" style="edgeStyle=orthogonalEdgeStyle;rounded=0;orthogonalLoop=1;jettySize=auto;html=1;entryX=0;entryY=0.5;entryDx=0;entryDy=0;exitX=0.5;exitY=1;exitDx=0;exitDy=0;" edge="1" parent="1" source="Kporj4aN2ORfp6ikIdKQ-28" target="Kporj4aN2ORfp6ikIdKQ-33">
          <mxGeometry relative="1" as="geometry" />
        </mxCell>
        <mxCell id="Kporj4aN2ORfp6ikIdKQ-28" value="remover a &quot;Andres&quot; de pacientes" style="whiteSpace=wrap;html=1;" vertex="1" parent="1">
          <mxGeometry x="150" y="680" width="120" height="60" as="geometry" />
        </mxCell>
        <mxCell id="Kporj4aN2ORfp6ikIdKQ-35" style="edgeStyle=orthogonalEdgeStyle;rounded=0;orthogonalLoop=1;jettySize=auto;html=1;entryX=1;entryY=0.5;entryDx=0;entryDy=0;exitX=0.333;exitY=1;exitDx=0;exitDy=0;exitPerimeter=0;" edge="1" parent="1" source="Kporj4aN2ORfp6ikIdKQ-30" target="Kporj4aN2ORfp6ikIdKQ-33">
          <mxGeometry relative="1" as="geometry" />
        </mxCell>
        <mxCell id="Kporj4aN2ORfp6ikIdKQ-30" value="pacientes" style="shape=document;whiteSpace=wrap;html=1;boundedLbl=1;" vertex="1" parent="1">
          <mxGeometry x="590" y="670" width="120" height="80" as="geometry" />
        </mxCell>
        <mxCell id="Kporj4aN2ORfp6ikIdKQ-37" value="" style="edgeStyle=orthogonalEdgeStyle;rounded=0;orthogonalLoop=1;jettySize=auto;html=1;" edge="1" parent="1" source="Kporj4aN2ORfp6ikIdKQ-33" target="Kporj4aN2ORfp6ikIdKQ-36">
          <mxGeometry relative="1" as="geometry" />
        </mxCell>
        <mxCell id="Kporj4aN2ORfp6ikIdKQ-33" value="no = len(consultorios)" style="rounded=0;whiteSpace=wrap;html=1;" vertex="1" parent="1">
          <mxGeometry x="375" y="790" width="120" height="60" as="geometry" />
        </mxCell>
        <mxCell id="Kporj4aN2ORfp6ikIdKQ-39" value="" style="edgeStyle=orthogonalEdgeStyle;rounded=0;orthogonalLoop=1;jettySize=auto;html=1;" edge="1" parent="1" source="Kporj4aN2ORfp6ikIdKQ-36" target="Kporj4aN2ORfp6ikIdKQ-38">
          <mxGeometry relative="1" as="geometry" />
        </mxCell>
        <mxCell id="Kporj4aN2ORfp6ikIdKQ-43" value="" style="edgeStyle=orthogonalEdgeStyle;rounded=0;orthogonalLoop=1;jettySize=auto;html=1;" edge="1" parent="1" source="Kporj4aN2ORfp6ikIdKQ-36" target="Kporj4aN2ORfp6ikIdKQ-42">
          <mxGeometry relative="1" as="geometry" />
        </mxCell>
        <mxCell id="Kporj4aN2ORfp6ikIdKQ-36" value="no &amp;gt; 3" style="rhombus;whiteSpace=wrap;html=1;rounded=0;" vertex="1" parent="1">
          <mxGeometry x="395" y="890" width="80" height="80" as="geometry" />
        </mxCell>
        <mxCell id="Kporj4aN2ORfp6ikIdKQ-41" value="" style="edgeStyle=orthogonalEdgeStyle;rounded=0;orthogonalLoop=1;jettySize=auto;html=1;" edge="1" parent="1" source="Kporj4aN2ORfp6ikIdKQ-38" target="Kporj4aN2ORfp6ikIdKQ-40">
          <mxGeometry relative="1" as="geometry" />
        </mxCell>
        <mxCell id="Kporj4aN2ORfp6ikIdKQ-38" value="num = consultorios[0]&lt;div&gt;consultorios.remove(num)&lt;/div&gt;" style="rounded=0;whiteSpace=wrap;html=1;" vertex="1" parent="1">
          <mxGeometry x="170" y="900" width="165" height="60" as="geometry" />
        </mxCell>
        <mxCell id="Kporj4aN2ORfp6ikIdKQ-45" value="" style="edgeStyle=orthogonalEdgeStyle;rounded=0;orthogonalLoop=1;jettySize=auto;html=1;entryX=0.5;entryY=0;entryDx=0;entryDy=0;" edge="1" parent="1" source="Kporj4aN2ORfp6ikIdKQ-40" target="Kporj4aN2ORfp6ikIdKQ-44">
          <mxGeometry relative="1" as="geometry" />
        </mxCell>
        <mxCell id="Kporj4aN2ORfp6ikIdKQ-40" value="consultorios" style="shape=document;whiteSpace=wrap;html=1;boundedLbl=1;rounded=0;" vertex="1" parent="1">
          <mxGeometry x="192.5" y="1030" width="120" height="80" as="geometry" />
        </mxCell>
        <mxCell id="Kporj4aN2ORfp6ikIdKQ-46" style="edgeStyle=orthogonalEdgeStyle;rounded=0;orthogonalLoop=1;jettySize=auto;html=1;entryX=0.5;entryY=0;entryDx=0;entryDy=0;exitX=0.358;exitY=1;exitDx=0;exitDy=0;exitPerimeter=0;" edge="1" parent="1" source="Kporj4aN2ORfp6ikIdKQ-42" target="Kporj4aN2ORfp6ikIdKQ-44">
          <mxGeometry relative="1" as="geometry">
            <Array as="points">
              <mxPoint x="578" y="1070" />
              <mxPoint x="454" y="1070" />
            </Array>
          </mxGeometry>
        </mxCell>
        <mxCell id="Kporj4aN2ORfp6ikIdKQ-42" value="consultorios" style="shape=document;whiteSpace=wrap;html=1;boundedLbl=1;rounded=0;" vertex="1" parent="1">
          <mxGeometry x="535" y="890" width="120" height="80" as="geometry" />
        </mxCell>
        <mxCell id="Kporj4aN2ORfp6ikIdKQ-50" value="" style="edgeStyle=orthogonalEdgeStyle;rounded=0;orthogonalLoop=1;jettySize=auto;html=1;" edge="1" parent="1" source="Kporj4aN2ORfp6ikIdKQ-44" target="Kporj4aN2ORfp6ikIdKQ-49">
          <mxGeometry relative="1" as="geometry" />
        </mxCell>
        <mxCell id="Kporj4aN2ORfp6ikIdKQ-52" value="" style="edgeStyle=orthogonalEdgeStyle;rounded=0;orthogonalLoop=1;jettySize=auto;html=1;" edge="1" parent="1" source="Kporj4aN2ORfp6ikIdKQ-44" target="Kporj4aN2ORfp6ikIdKQ-51">
          <mxGeometry relative="1" as="geometry" />
        </mxCell>
        <mxCell id="Kporj4aN2ORfp6ikIdKQ-44" value="&quot;Laura&quot; en pacientes" style="rhombus;whiteSpace=wrap;html=1;rounded=0;" vertex="1" parent="1">
          <mxGeometry x="414" y="1089" width="80" height="80" as="geometry" />
        </mxCell>
        <mxCell id="Kporj4aN2ORfp6ikIdKQ-54" value="" style="edgeStyle=orthogonalEdgeStyle;rounded=0;orthogonalLoop=1;jettySize=auto;html=1;" edge="1" parent="1" source="Kporj4aN2ORfp6ikIdKQ-49" target="Kporj4aN2ORfp6ikIdKQ-53">
          <mxGeometry relative="1" as="geometry">
            <Array as="points">
              <mxPoint x="240" y="1350" />
            </Array>
          </mxGeometry>
        </mxCell>
        <mxCell id="Kporj4aN2ORfp6ikIdKQ-49" value="remover a &quot;Laura&quot; y agregar a &quot;Camila&quot;" style="whiteSpace=wrap;html=1;rounded=0;" vertex="1" parent="1">
          <mxGeometry x="185" y="1190" width="120" height="60" as="geometry" />
        </mxCell>
        <mxCell id="Kporj4aN2ORfp6ikIdKQ-55" style="edgeStyle=orthogonalEdgeStyle;rounded=0;orthogonalLoop=1;jettySize=auto;html=1;entryX=1;entryY=0.5;entryDx=0;entryDy=0;" edge="1" parent="1" source="Kporj4aN2ORfp6ikIdKQ-51" target="Kporj4aN2ORfp6ikIdKQ-53">
          <mxGeometry relative="1" as="geometry" />
        </mxCell>
        <mxCell id="Kporj4aN2ORfp6ikIdKQ-51" value="pacientes" style="shape=document;whiteSpace=wrap;html=1;boundedLbl=1;rounded=0;" vertex="1" parent="1">
          <mxGeometry x="570" y="1190" width="120" height="80" as="geometry" />
        </mxCell>
        <mxCell id="Kporj4aN2ORfp6ikIdKQ-57" value="" style="edgeStyle=orthogonalEdgeStyle;rounded=0;orthogonalLoop=1;jettySize=auto;html=1;" edge="1" parent="1" source="Kporj4aN2ORfp6ikIdKQ-53" target="Kporj4aN2ORfp6ikIdKQ-56">
          <mxGeometry relative="1" as="geometry" />
        </mxCell>
        <mxCell id="Kporj4aN2ORfp6ikIdKQ-53" value="turno_maÃ±ana = [pacientes[0],pacientes[-1]]" style="whiteSpace=wrap;html=1;rounded=0;" vertex="1" parent="1">
          <mxGeometry x="341" y="1320" width="235" height="60" as="geometry" />
        </mxCell>
        <mxCell id="Kporj4aN2ORfp6ikIdKQ-59" value="" style="edgeStyle=orthogonalEdgeStyle;rounded=0;orthogonalLoop=1;jettySize=auto;html=1;" edge="1" parent="1" source="Kporj4aN2ORfp6ikIdKQ-56" target="Kporj4aN2ORfp6ikIdKQ-58">
          <mxGeometry relative="1" as="geometry" />
        </mxCell>
        <mxCell id="Kporj4aN2ORfp6ikIdKQ-56" value="consultas_activas = [consultorios[0],consultorios[-1]]" style="whiteSpace=wrap;html=1;rounded=0;" vertex="1" parent="1">
          <mxGeometry x="360" y="1430" width="198.5" height="60" as="geometry" />
        </mxCell>
        <mxCell id="Kporj4aN2ORfp6ikIdKQ-61" value="" style="edgeStyle=orthogonalEdgeStyle;rounded=0;orthogonalLoop=1;jettySize=auto;html=1;" edge="1" parent="1" source="Kporj4aN2ORfp6ikIdKQ-58" target="Kporj4aN2ORfp6ikIdKQ-60">
          <mxGeometry relative="1" as="geometry" />
        </mxCell>
        <mxCell id="Kporj4aN2ORfp6ikIdKQ-65" value="" style="edgeStyle=orthogonalEdgeStyle;rounded=0;orthogonalLoop=1;jettySize=auto;html=1;" edge="1" parent="1" source="Kporj4aN2ORfp6ikIdKQ-58" target="Kporj4aN2ORfp6ikIdKQ-64">
          <mxGeometry relative="1" as="geometry" />
        </mxCell>
        <mxCell id="Kporj4aN2ORfp6ikIdKQ-58" value="104 en consultas_activas" style="rhombus;whiteSpace=wrap;html=1;rounded=0;" vertex="1" parent="1">
          <mxGeometry x="384.25" y="1520" width="150" height="80" as="geometry" />
        </mxCell>
        <mxCell id="Kporj4aN2ORfp6ikIdKQ-63" value="" style="edgeStyle=orthogonalEdgeStyle;rounded=0;orthogonalLoop=1;jettySize=auto;html=1;" edge="1" parent="1" source="Kporj4aN2ORfp6ikIdKQ-60" target="Kporj4aN2ORfp6ikIdKQ-62">
          <mxGeometry relative="1" as="geometry" />
        </mxCell>
        <mxCell id="Kporj4aN2ORfp6ikIdKQ-60" value="emergencia = (&quot;camila&quot;,104)" style="whiteSpace=wrap;html=1;rounded=0;" vertex="1" parent="1">
          <mxGeometry x="169.25" y="1530" width="120" height="60" as="geometry" />
        </mxCell>
        <mxCell id="Kporj4aN2ORfp6ikIdKQ-67" value="" style="edgeStyle=orthogonalEdgeStyle;rounded=0;orthogonalLoop=1;jettySize=auto;html=1;entryX=0.5;entryY=0;entryDx=0;entryDy=0;" edge="1" parent="1" source="Kporj4aN2ORfp6ikIdKQ-62" target="Kporj4aN2ORfp6ikIdKQ-66">
          <mxGeometry relative="1" as="geometry" />
        </mxCell>
        <mxCell id="Kporj4aN2ORfp6ikIdKQ-62" value="emergencia" style="shape=document;whiteSpace=wrap;html=1;boundedLbl=1;rounded=0;" vertex="1" parent="1">
          <mxGeometry x="169.25" y="1630" width="120" height="80" as="geometry" />
        </mxCell>
        <mxCell id="Kporj4aN2ORfp6ikIdKQ-79" style="edgeStyle=orthogonalEdgeStyle;rounded=0;orthogonalLoop=1;jettySize=auto;html=1;entryX=0.5;entryY=0;entryDx=0;entryDy=0;exitX=0.26;exitY=0.995;exitDx=0;exitDy=0;exitPerimeter=0;" edge="1" parent="1" source="Kporj4aN2ORfp6ikIdKQ-64" target="Kporj4aN2ORfp6ikIdKQ-66">
          <mxGeometry relative="1" as="geometry">
            <Array as="points">
              <mxPoint x="661" y="1670" />
              <mxPoint x="445" y="1670" />
            </Array>
          </mxGeometry>
        </mxCell>
        <mxCell id="Kporj4aN2ORfp6ikIdKQ-64" value="consutas_activas" style="shape=document;whiteSpace=wrap;html=1;boundedLbl=1;rounded=0;" vertex="1" parent="1">
          <mxGeometry x="629.25" y="1520" width="120" height="80" as="geometry" />
        </mxCell>
        <mxCell id="Kporj4aN2ORfp6ikIdKQ-81" value="" style="edgeStyle=orthogonalEdgeStyle;rounded=0;orthogonalLoop=1;jettySize=auto;html=1;" edge="1" parent="1" source="Kporj4aN2ORfp6ikIdKQ-66" target="Kporj4aN2ORfp6ikIdKQ-80">
          <mxGeometry relative="1" as="geometry" />
        </mxCell>
        <mxCell id="Kporj4aN2ORfp6ikIdKQ-83" value="" style="edgeStyle=orthogonalEdgeStyle;rounded=0;orthogonalLoop=1;jettySize=auto;html=1;" edge="1" parent="1" source="Kporj4aN2ORfp6ikIdKQ-66" target="Kporj4aN2ORfp6ikIdKQ-82">
          <mxGeometry relative="1" as="geometry" />
        </mxCell>
        <mxCell id="Kporj4aN2ORfp6ikIdKQ-66" value="&quot;Camila&quot; en turno_maÃ±ana" style="rhombus;whiteSpace=wrap;html=1;rounded=0;" vertex="1" parent="1">
          <mxGeometry x="375" y="1710" width="140.75" height="80" as="geometry" />
        </mxCell>
        <mxCell id="Kporj4aN2ORfp6ikIdKQ-68" value="si" style="text;html=1;align=center;verticalAlign=middle;whiteSpace=wrap;rounded=0;" vertex="1" parent="1">
          <mxGeometry x="315" y="1530" width="60" height="30" as="geometry" />
        </mxCell>
        <mxCell id="Kporj4aN2ORfp6ikIdKQ-69" value="no" style="text;html=1;align=center;verticalAlign=middle;whiteSpace=wrap;rounded=0;" vertex="1" parent="1">
          <mxGeometry x="540" y="1530" width="60" height="30" as="geometry" />
        </mxCell>
        <mxCell id="Kporj4aN2ORfp6ikIdKQ-70" value="si" style="text;html=1;align=center;verticalAlign=middle;whiteSpace=wrap;rounded=0;" vertex="1" parent="1">
          <mxGeometry x="324.25" y="1100" width="60" height="30" as="geometry" />
        </mxCell>
        <mxCell id="Kporj4aN2ORfp6ikIdKQ-71" value="no" style="text;html=1;align=center;verticalAlign=middle;whiteSpace=wrap;rounded=0;" vertex="1" parent="1">
          <mxGeometry x="535" y="1100" width="60" height="30" as="geometry" />
        </mxCell>
        <mxCell id="Kporj4aN2ORfp6ikIdKQ-72" value="si" style="text;html=1;align=center;verticalAlign=middle;whiteSpace=wrap;rounded=0;" vertex="1" parent="1">
          <mxGeometry x="341" y="910" width="60" height="30" as="geometry" />
        </mxCell>
        <mxCell id="Kporj4aN2ORfp6ikIdKQ-73" value="no" style="text;html=1;align=center;verticalAlign=middle;whiteSpace=wrap;rounded=0;" vertex="1" parent="1">
          <mxGeometry x="475" y="910" width="60" height="30" as="geometry" />
        </mxCell>
        <mxCell id="Kporj4aN2ORfp6ikIdKQ-74" value="si" style="text;html=1;align=center;verticalAlign=middle;whiteSpace=wrap;rounded=0;" vertex="1" parent="1">
          <mxGeometry x="290" y="690" width="60" height="30" as="geometry" />
        </mxCell>
        <mxCell id="Kporj4aN2ORfp6ikIdKQ-75" value="no" style="text;html=1;align=center;verticalAlign=middle;whiteSpace=wrap;rounded=0;" vertex="1" parent="1">
          <mxGeometry x="516" y="690" width="60" height="30" as="geometry" />
        </mxCell>
        <mxCell id="Kporj4aN2ORfp6ikIdKQ-77" value="no" style="text;html=1;align=center;verticalAlign=middle;whiteSpace=wrap;rounded=0;" vertex="1" parent="1">
          <mxGeometry x="480" y="450" width="60" height="30" as="geometry" />
        </mxCell>
        <mxCell id="Kporj4aN2ORfp6ikIdKQ-78" value="si" style="text;html=1;align=center;verticalAlign=middle;whiteSpace=wrap;rounded=0;" vertex="1" parent="1">
          <mxGeometry x="280" y="200" width="60" height="30" as="geometry" />
        </mxCell>
        <mxCell id="Kporj4aN2ORfp6ikIdKQ-85" value="" style="edgeStyle=orthogonalEdgeStyle;rounded=0;orthogonalLoop=1;jettySize=auto;html=1;entryX=0.5;entryY=0;entryDx=0;entryDy=0;exitX=0.5;exitY=1;exitDx=0;exitDy=0;" edge="1" parent="1" source="Kporj4aN2ORfp6ikIdKQ-80" target="Kporj4aN2ORfp6ikIdKQ-84">
          <mxGeometry relative="1" as="geometry" />
        </mxCell>
        <mxCell id="Kporj4aN2ORfp6ikIdKQ-80" value="turno_maÃ±ana.append&lt;div&gt;(&quot;Atancion Prioritaria&quot;)&lt;/div&gt;" style="whiteSpace=wrap;html=1;rounded=0;" vertex="1" parent="1">
          <mxGeometry x="150" y="1720" width="134.63" height="60" as="geometry" />
        </mxCell>
        <mxCell id="Kporj4aN2ORfp6ikIdKQ-86" style="edgeStyle=orthogonalEdgeStyle;rounded=0;orthogonalLoop=1;jettySize=auto;html=1;entryX=0.5;entryY=0;entryDx=0;entryDy=0;exitX=0.333;exitY=1;exitDx=0;exitDy=0;exitPerimeter=0;" edge="1" parent="1" source="Kporj4aN2ORfp6ikIdKQ-82" target="Kporj4aN2ORfp6ikIdKQ-84">
          <mxGeometry relative="1" as="geometry">
            <Array as="points">
              <mxPoint x="630" y="1830" />
              <mxPoint x="445" y="1830" />
            </Array>
          </mxGeometry>
        </mxCell>
        <mxCell id="Kporj4aN2ORfp6ikIdKQ-82" value="turno maÃ±ana" style="shape=document;whiteSpace=wrap;html=1;boundedLbl=1;rounded=0;" vertex="1" parent="1">
          <mxGeometry x="590.005" y="1710" width="120" height="80" as="geometry" />
        </mxCell>
        <mxCell id="Kporj4aN2ORfp6ikIdKQ-90" value="" style="edgeStyle=orthogonalEdgeStyle;rounded=0;orthogonalLoop=1;jettySize=auto;html=1;" edge="1" parent="1" source="Kporj4aN2ORfp6ikIdKQ-84" target="Kporj4aN2ORfp6ikIdKQ-89">
          <mxGeometry relative="1" as="geometry" />
        </mxCell>
        <mxCell id="Kporj4aN2ORfp6ikIdKQ-93" value="" style="edgeStyle=orthogonalEdgeStyle;rounded=0;orthogonalLoop=1;jettySize=auto;html=1;" edge="1" parent="1" source="Kporj4aN2ORfp6ikIdKQ-84" target="Kporj4aN2ORfp6ikIdKQ-92">
          <mxGeometry relative="1" as="geometry" />
        </mxCell>
        <mxCell id="Kporj4aN2ORfp6ikIdKQ-84" value="&quot;Atencion prioritaria&quot; en turno_maÃ±ana" style="rhombus;whiteSpace=wrap;html=1;rounded=0;" vertex="1" parent="1">
          <mxGeometry x="359.03" y="1880" width="172.69" height="80" as="geometry" />
        </mxCell>
        <mxCell id="Kporj4aN2ORfp6ikIdKQ-87" value="si" style="text;html=1;align=center;verticalAlign=middle;whiteSpace=wrap;rounded=0;" vertex="1" parent="1">
          <mxGeometry x="312.5" y="1724" width="60" height="30" as="geometry" />
        </mxCell>
        <mxCell id="Kporj4aN2ORfp6ikIdKQ-88" value="no" style="text;html=1;align=center;verticalAlign=middle;whiteSpace=wrap;rounded=0;" vertex="1" parent="1">
          <mxGeometry x="520" y="1724" width="60" height="30" as="geometry" />
        </mxCell>
        <mxCell id="Kporj4aN2ORfp6ikIdKQ-97" value="" style="edgeStyle=orthogonalEdgeStyle;rounded=0;orthogonalLoop=1;jettySize=auto;html=1;exitX=0.5;exitY=1;exitDx=0;exitDy=0;" edge="1" parent="1" source="Kporj4aN2ORfp6ikIdKQ-89" target="Kporj4aN2ORfp6ikIdKQ-96">
          <mxGeometry relative="1" as="geometry" />
        </mxCell>
        <mxCell id="Kporj4aN2ORfp6ikIdKQ-89" value="registro_pacientes = { &quot;nombre&quot; : &quot;camila&quot;, &quot;consultorio&quot; : 102, &quot;estado&quot; : &quot;en observacion&quot; }" style="whiteSpace=wrap;html=1;rounded=0;" vertex="1" parent="1">
          <mxGeometry x="107.32" y="1875" width="172.68" height="90" as="geometry" />
        </mxCell>
        <mxCell id="Kporj4aN2ORfp6ikIdKQ-91" value="si" style="text;html=1;align=center;verticalAlign=middle;whiteSpace=wrap;rounded=0;" vertex="1" parent="1">
          <mxGeometry x="299.03" y="1890" width="60" height="30" as="geometry" />
        </mxCell>
        <mxCell id="Kporj4aN2ORfp6ikIdKQ-98" style="edgeStyle=orthogonalEdgeStyle;rounded=0;orthogonalLoop=1;jettySize=auto;html=1;entryX=0.5;entryY=0;entryDx=0;entryDy=0;" edge="1" parent="1" source="Kporj4aN2ORfp6ikIdKQ-92" target="Kporj4aN2ORfp6ikIdKQ-96">
          <mxGeometry relative="1" as="geometry">
            <Array as="points">
              <mxPoint x="698" y="2010" />
              <mxPoint x="445" y="2010" />
            </Array>
          </mxGeometry>
        </mxCell>
        <mxCell id="Kporj4aN2ORfp6ikIdKQ-92" value="turno maÃ±ana" style="shape=document;whiteSpace=wrap;html=1;boundedLbl=1;rounded=0;" vertex="1" parent="1">
          <mxGeometry x="638.065" y="1880" width="120" height="80" as="geometry" />
        </mxCell>
        <mxCell id="Kporj4aN2ORfp6ikIdKQ-94" value="no" style="text;html=1;align=center;verticalAlign=middle;whiteSpace=wrap;rounded=0;" vertex="1" parent="1">
          <mxGeometry x="558.5" y="1890" width="60" height="30" as="geometry" />
        </mxCell>
        <mxCell id="Kporj4aN2ORfp6ikIdKQ-100" value="" style="edgeStyle=orthogonalEdgeStyle;rounded=0;orthogonalLoop=1;jettySize=auto;html=1;" edge="1" parent="1" source="Kporj4aN2ORfp6ikIdKQ-96" target="Kporj4aN2ORfp6ikIdKQ-99">
          <mxGeometry relative="1" as="geometry" />
        </mxCell>
        <mxCell id="Kporj4aN2ORfp6ikIdKQ-102" value="" style="edgeStyle=orthogonalEdgeStyle;rounded=0;orthogonalLoop=1;jettySize=auto;html=1;" edge="1" parent="1" source="Kporj4aN2ORfp6ikIdKQ-96" target="Kporj4aN2ORfp6ikIdKQ-101">
          <mxGeometry relative="1" as="geometry" />
        </mxCell>
        <mxCell id="Kporj4aN2ORfp6ikIdKQ-104" value="" style="edgeStyle=orthogonalEdgeStyle;rounded=0;orthogonalLoop=1;jettySize=auto;html=1;" edge="1" parent="1" source="Kporj4aN2ORfp6ikIdKQ-96" target="Kporj4aN2ORfp6ikIdKQ-103">
          <mxGeometry relative="1" as="geometry" />
        </mxCell>
        <mxCell id="Kporj4aN2ORfp6ikIdKQ-96" value="&quot;registro_pacientes&quot; in globals()" style="rhombus;whiteSpace=wrap;html=1;rounded=0;" vertex="1" parent="1">
          <mxGeometry x="347.2" y="2050" width="196.34" height="80" as="geometry" />
        </mxCell>
        <mxCell id="Kporj4aN2ORfp6ikIdKQ-99" value="registro_pacientes.append(&quot;Hora de ingreso&quot;) registro_pacientes[&quot;Hora de ingreso&quot;] = &quot;10:45 AM&quot;" style="whiteSpace=wrap;html=1;rounded=0;" vertex="1" parent="1">
          <mxGeometry x="85.6" y="2040" width="199.03" height="100" as="geometry" />
        </mxCell>
        <mxCell id="Kporj4aN2ORfp6ikIdKQ-101" value="pacientes" style="shape=document;whiteSpace=wrap;html=1;boundedLbl=1;rounded=0;" vertex="1" parent="1">
          <mxGeometry x="599.9999999999999" y="2050" width="120" height="80" as="geometry" />
        </mxCell>
        <mxCell id="Kporj4aN2ORfp6ikIdKQ-106" value="" style="edgeStyle=orthogonalEdgeStyle;rounded=0;orthogonalLoop=1;jettySize=auto;html=1;" edge="1" parent="1" source="Kporj4aN2ORfp6ikIdKQ-103" target="Kporj4aN2ORfp6ikIdKQ-105">
          <mxGeometry relative="1" as="geometry" />
        </mxCell>
        <mxCell id="Kporj4aN2ORfp6ikIdKQ-103" value="esta = 105 in consultorios" style="whiteSpace=wrap;html=1;rounded=0;" vertex="1" parent="1">
          <mxGeometry x="385.37" y="2220" width="120" height="60" as="geometry" />
        </mxCell>
        <mxCell id="Kporj4aN2ORfp6ikIdKQ-110" value="" style="edgeStyle=orthogonalEdgeStyle;rounded=0;orthogonalLoop=1;jettySize=auto;html=1;" edge="1" parent="1" source="Kporj4aN2ORfp6ikIdKQ-105" target="Kporj4aN2ORfp6ikIdKQ-109">
          <mxGeometry relative="1" as="geometry" />
        </mxCell>
        <mxCell id="Kporj4aN2ORfp6ikIdKQ-114" value="" style="edgeStyle=orthogonalEdgeStyle;rounded=0;orthogonalLoop=1;jettySize=auto;html=1;" edge="1" parent="1" source="Kporj4aN2ORfp6ikIdKQ-105" target="Kporj4aN2ORfp6ikIdKQ-113">
          <mxGeometry relative="1" as="geometry" />
        </mxCell>
        <mxCell id="Kporj4aN2ORfp6ikIdKQ-105" value="esta in globals()" style="rhombus;whiteSpace=wrap;html=1;rounded=0;" vertex="1" parent="1">
          <mxGeometry x="372.5" y="2330" width="144.63" height="80" as="geometry" />
        </mxCell>
        <mxCell id="Kporj4aN2ORfp6ikIdKQ-107" value="si" style="text;html=1;align=center;verticalAlign=middle;whiteSpace=wrap;rounded=0;" vertex="1" parent="1">
          <mxGeometry x="290" y="2060" width="60" height="30" as="geometry" />
        </mxCell>
        <mxCell id="Kporj4aN2ORfp6ikIdKQ-108" value="no" style="text;html=1;align=center;verticalAlign=middle;whiteSpace=wrap;rounded=0;" vertex="1" parent="1">
          <mxGeometry x="530" y="2060" width="60" height="30" as="geometry" />
        </mxCell>
        <mxCell id="Kporj4aN2ORfp6ikIdKQ-118" style="edgeStyle=orthogonalEdgeStyle;rounded=0;orthogonalLoop=1;jettySize=auto;html=1;entryX=0.5;entryY=0;entryDx=0;entryDy=0;" edge="1" parent="1" source="Kporj4aN2ORfp6ikIdKQ-109" target="Kporj4aN2ORfp6ikIdKQ-116">
          <mxGeometry relative="1" as="geometry">
            <Array as="points">
              <mxPoint x="220" y="2440" />
              <mxPoint x="445" y="2440" />
            </Array>
          </mxGeometry>
        </mxCell>
        <mxCell id="Kporj4aN2ORfp6ikIdKQ-109" value="consultorios" style="shape=document;whiteSpace=wrap;html=1;boundedLbl=1;rounded=0;" vertex="1" parent="1">
          <mxGeometry x="160.185" y="2330" width="120" height="80" as="geometry" />
        </mxCell>
        <mxCell id="Kporj4aN2ORfp6ikIdKQ-112" value="si" style="text;html=1;align=center;verticalAlign=middle;whiteSpace=wrap;rounded=0;" vertex="1" parent="1">
          <mxGeometry x="305" y="2338" width="60" height="30" as="geometry" />
        </mxCell>
        <mxCell id="Kporj4aN2ORfp6ikIdKQ-117" style="edgeStyle=orthogonalEdgeStyle;rounded=0;orthogonalLoop=1;jettySize=auto;html=1;entryX=0.5;entryY=0;entryDx=0;entryDy=0;" edge="1" parent="1" source="Kporj4aN2ORfp6ikIdKQ-113" target="Kporj4aN2ORfp6ikIdKQ-116">
          <mxGeometry relative="1" as="geometry">
            <Array as="points">
              <mxPoint x="660" y="2440" />
              <mxPoint x="445" y="2440" />
            </Array>
          </mxGeometry>
        </mxCell>
        <mxCell id="Kporj4aN2ORfp6ikIdKQ-113" value="consultorios.append(105)" style="whiteSpace=wrap;html=1;rounded=0;" vertex="1" parent="1">
          <mxGeometry x="584.72" y="2330" width="150.56" height="80" as="geometry" />
        </mxCell>
        <mxCell id="Kporj4aN2ORfp6ikIdKQ-115" value="no" style="text;html=1;align=center;verticalAlign=middle;whiteSpace=wrap;rounded=0;" vertex="1" parent="1">
          <mxGeometry x="515.75" y="2338" width="60" height="30" as="geometry" />
        </mxCell>
        <mxCell id="Kporj4aN2ORfp6ikIdKQ-120" value="" style="edgeStyle=orthogonalEdgeStyle;rounded=0;orthogonalLoop=1;jettySize=auto;html=1;" edge="1" parent="1" source="Kporj4aN2ORfp6ikIdKQ-116" target="Kporj4aN2ORfp6ikIdKQ-119">
          <mxGeometry relative="1" as="geometry" />
        </mxCell>
        <mxCell id="Kporj4aN2ORfp6ikIdKQ-123" value="" style="edgeStyle=orthogonalEdgeStyle;rounded=0;orthogonalLoop=1;jettySize=auto;html=1;" edge="1" parent="1" source="Kporj4aN2ORfp6ikIdKQ-116" target="Kporj4aN2ORfp6ikIdKQ-122">
          <mxGeometry relative="1" as="geometry" />
        </mxCell>
        <mxCell id="Kporj4aN2ORfp6ikIdKQ-116" value="&quot;Andres&quot; in pacientes" style="rhombus;whiteSpace=wrap;html=1;" vertex="1" parent="1">
          <mxGeometry x="379.82" y="2460" width="130" height="80" as="geometry" />
        </mxCell>
        <mxCell id="Kporj4aN2ORfp6ikIdKQ-129" style="edgeStyle=orthogonalEdgeStyle;rounded=0;orthogonalLoop=1;jettySize=auto;html=1;entryX=0.5;entryY=0;entryDx=0;entryDy=0;exitX=0.295;exitY=1;exitDx=0;exitDy=0;exitPerimeter=0;" edge="1" parent="1" source="Kporj4aN2ORfp6ikIdKQ-119" target="Kporj4aN2ORfp6ikIdKQ-127">
          <mxGeometry relative="1" as="geometry" />
        </mxCell>
        <mxCell id="Kporj4aN2ORfp6ikIdKQ-119" value="pacientes" style="shape=document;whiteSpace=wrap;html=1;boundedLbl=1;" vertex="1" parent="1">
          <mxGeometry x="164.63" y="2460" width="120" height="80" as="geometry" />
        </mxCell>
        <mxCell id="Kporj4aN2ORfp6ikIdKQ-121" value="si" style="text;html=1;align=center;verticalAlign=middle;whiteSpace=wrap;rounded=0;" vertex="1" parent="1">
          <mxGeometry x="312.5" y="2470" width="60" height="30" as="geometry" />
        </mxCell>
        <mxCell id="Kporj4aN2ORfp6ikIdKQ-126" value="" style="edgeStyle=orthogonalEdgeStyle;rounded=0;orthogonalLoop=1;jettySize=auto;html=1;" edge="1" parent="1" source="Kporj4aN2ORfp6ikIdKQ-122" target="Kporj4aN2ORfp6ikIdKQ-125">
          <mxGeometry relative="1" as="geometry" />
        </mxCell>
        <mxCell id="Kporj4aN2ORfp6ikIdKQ-122" value="pacientes.append(&quot;Andres&quot;)" style="whiteSpace=wrap;html=1;" vertex="1" parent="1">
          <mxGeometry x="590" y="2475" width="175.18" height="50" as="geometry" />
        </mxCell>
        <mxCell id="Kporj4aN2ORfp6ikIdKQ-124" value="no" style="text;html=1;align=center;verticalAlign=middle;whiteSpace=wrap;rounded=0;" vertex="1" parent="1">
          <mxGeometry x="524.72" y="2470" width="60" height="30" as="geometry" />
        </mxCell>
        <mxCell id="Kporj4aN2ORfp6ikIdKQ-128" value="" style="edgeStyle=orthogonalEdgeStyle;rounded=0;orthogonalLoop=1;jettySize=auto;html=1;" edge="1" parent="1" source="Kporj4aN2ORfp6ikIdKQ-125" target="Kporj4aN2ORfp6ikIdKQ-127">
          <mxGeometry relative="1" as="geometry" />
        </mxCell>
        <mxCell id="Kporj4aN2ORfp6ikIdKQ-125" value="pacientes" style="shape=document;whiteSpace=wrap;html=1;boundedLbl=1;" vertex="1" parent="1">
          <mxGeometry x="617.59" y="2550" width="120" height="80" as="geometry" />
        </mxCell>
        <mxCell id="Kporj4aN2ORfp6ikIdKQ-131" value="" style="edgeStyle=orthogonalEdgeStyle;rounded=0;orthogonalLoop=1;jettySize=auto;html=1;" edge="1" parent="1" source="Kporj4aN2ORfp6ikIdKQ-127" target="Kporj4aN2ORfp6ikIdKQ-130">
          <mxGeometry relative="1" as="geometry" />
        </mxCell>
        <mxCell id="Kporj4aN2ORfp6ikIdKQ-136" value="" style="edgeStyle=orthogonalEdgeStyle;rounded=0;orthogonalLoop=1;jettySize=auto;html=1;exitX=1;exitY=0.5;exitDx=0;exitDy=0;" edge="1" parent="1" source="Kporj4aN2ORfp6ikIdKQ-127" target="Kporj4aN2ORfp6ikIdKQ-135">
          <mxGeometry relative="1" as="geometry">
            <Array as="points">
              <mxPoint x="670" y="2715" />
              <mxPoint x="670" y="2830" />
              <mxPoint x="454" y="2830" />
            </Array>
          </mxGeometry>
        </mxCell>
        <mxCell id="Kporj4aN2ORfp6ikIdKQ-127" value="&quot;registro_pacientes&quot; in globals() and &quot;emergencia&quot; in globals() and &quot;registro_pacientes&quot; in globals()" style="rhombus;whiteSpace=wrap;html=1;" vertex="1" parent="1">
          <mxGeometry x="331.5" y="2640" width="245" height="150" as="geometry" />
        </mxCell>
        <mxCell id="Kporj4aN2ORfp6ikIdKQ-134" style="edgeStyle=orthogonalEdgeStyle;rounded=0;orthogonalLoop=1;jettySize=auto;html=1;entryX=0.5;entryY=0;entryDx=0;entryDy=0;exitX=0.21;exitY=0.975;exitDx=0;exitDy=0;exitPerimeter=0;" edge="1" parent="1" source="Kporj4aN2ORfp6ikIdKQ-130" target="Kporj4aN2ORfp6ikIdKQ-133">
          <mxGeometry relative="1" as="geometry">
            <mxPoint x="151" y="2820" as="sourcePoint" />
            <Array as="points">
              <mxPoint x="76" y="3260" />
              <mxPoint x="447" y="3260" />
            </Array>
          </mxGeometry>
        </mxCell>
        <mxCell id="Kporj4aN2ORfp6ikIdKQ-130" value="f&quot;los pacientes son {pacientes} y los consultorios son {consultorios} y el turno maÃ±ana es este{turno_maÃ±ana} y las consultas activas son {consultas_activas} y el registro {registro_pacientes} en emergencia emergencia,registro_pacientes&quot;" style="shape=document;whiteSpace=wrap;html=1;boundedLbl=1;" vertex="1" parent="1">
          <mxGeometry x="21.18" y="2612.5" width="259" height="205" as="geometry" />
        </mxCell>
        <mxCell id="Kporj4aN2ORfp6ikIdKQ-132" value="si" style="text;html=1;align=center;verticalAlign=middle;whiteSpace=wrap;rounded=0;" vertex="1" parent="1">
          <mxGeometry x="280" y="2680" width="60" height="30" as="geometry" />
        </mxCell>
        <mxCell id="Kporj4aN2ORfp6ikIdKQ-133" value="fin del programa" style="ellipse;whiteSpace=wrap;html=1;" vertex="1" parent="1">
          <mxGeometry x="387" y="3310" width="120" height="80" as="geometry" />
        </mxCell>
        <mxCell id="Kporj4aN2ORfp6ikIdKQ-139" value="" style="edgeStyle=orthogonalEdgeStyle;rounded=0;orthogonalLoop=1;jettySize=auto;html=1;entryX=1;entryY=0.5;entryDx=0;entryDy=0;" edge="1" parent="1" source="Kporj4aN2ORfp6ikIdKQ-135" target="Kporj4aN2ORfp6ikIdKQ-138">
          <mxGeometry relative="1" as="geometry" />
        </mxCell>
        <mxCell id="Kporj4aN2ORfp6ikIdKQ-141" value="" style="edgeStyle=orthogonalEdgeStyle;rounded=0;orthogonalLoop=1;jettySize=auto;html=1;exitX=1;exitY=0.5;exitDx=0;exitDy=0;" edge="1" parent="1" source="Kporj4aN2ORfp6ikIdKQ-135" target="Kporj4aN2ORfp6ikIdKQ-140">
          <mxGeometry relative="1" as="geometry">
            <Array as="points">
              <mxPoint x="670" y="2920" />
              <mxPoint x="670" y="2990" />
              <mxPoint x="454" y="2990" />
            </Array>
          </mxGeometry>
        </mxCell>
        <mxCell id="Kporj4aN2ORfp6ikIdKQ-135" value="f&quot;registro_pacientes&quot; in globals() and &quot;emergencia&quot; in globals()" style="rhombus;whiteSpace=wrap;html=1;" vertex="1" parent="1">
          <mxGeometry x="334.75" y="2870" width="238.5" height="100" as="geometry" />
        </mxCell>
        <mxCell id="Kporj4aN2ORfp6ikIdKQ-137" value="no" style="text;html=1;align=center;verticalAlign=middle;whiteSpace=wrap;rounded=0;" vertex="1" parent="1">
          <mxGeometry x="584.72" y="2690" width="60" height="30" as="geometry" />
        </mxCell>
        <mxCell id="Kporj4aN2ORfp6ikIdKQ-138" value="pacientes,&lt;div&gt;consultorios,turno_maÃ±ana,&lt;/div&gt;&lt;div&gt;consultas_activas,&lt;/div&gt;&lt;div&gt;registro_pacientes,&lt;/div&gt;&lt;div&gt;emergencia&lt;/div&gt;" style="shape=document;whiteSpace=wrap;html=1;boundedLbl=1;" vertex="1" parent="1">
          <mxGeometry x="130" y="2865" width="149.03" height="110" as="geometry" />
        </mxCell>
        <mxCell id="Kporj4aN2ORfp6ikIdKQ-146" value="" style="edgeStyle=orthogonalEdgeStyle;rounded=0;orthogonalLoop=1;jettySize=auto;html=1;" edge="1" parent="1" source="Kporj4aN2ORfp6ikIdKQ-140" target="Kporj4aN2ORfp6ikIdKQ-145">
          <mxGeometry relative="1" as="geometry" />
        </mxCell>
        <mxCell id="Kporj4aN2ORfp6ikIdKQ-149" value="" style="edgeStyle=orthogonalEdgeStyle;rounded=0;orthogonalLoop=1;jettySize=auto;html=1;" edge="1" parent="1" source="Kporj4aN2ORfp6ikIdKQ-140" target="Kporj4aN2ORfp6ikIdKQ-148">
          <mxGeometry relative="1" as="geometry" />
        </mxCell>
        <mxCell id="Kporj4aN2ORfp6ikIdKQ-140" value="&quot;registro_pacientes&quot; in globals()" style="rhombus;whiteSpace=wrap;html=1;" vertex="1" parent="1">
          <mxGeometry x="371" y="3010" width="166" height="80" as="geometry" />
        </mxCell>
        <mxCell id="Kporj4aN2ORfp6ikIdKQ-142" value="si" style="text;html=1;align=center;verticalAlign=middle;whiteSpace=wrap;rounded=0;" vertex="1" parent="1">
          <mxGeometry x="287.2" y="2893" width="60" height="30" as="geometry" />
        </mxCell>
        <mxCell id="Kporj4aN2ORfp6ikIdKQ-143" value="no" style="text;html=1;align=center;verticalAlign=middle;whiteSpace=wrap;rounded=0;" vertex="1" parent="1">
          <mxGeometry x="580" y="2893" width="60" height="30" as="geometry" />
        </mxCell>
        <mxCell id="Kporj4aN2ORfp6ikIdKQ-145" value="pacientes,&lt;div&gt;consultorios,&lt;/div&gt;&lt;div&gt;turno_maÃ±ana,&lt;/div&gt;&lt;div&gt;consultas_activas,&lt;/div&gt;&lt;div&gt;registro_pacientes&lt;/div&gt;" style="shape=document;whiteSpace=wrap;html=1;boundedLbl=1;" vertex="1" parent="1">
          <mxGeometry x="132" y="2995" width="138" height="110" as="geometry" />
        </mxCell>
        <mxCell id="Kporj4aN2ORfp6ikIdKQ-147" value="si" style="text;html=1;align=center;verticalAlign=middle;whiteSpace=wrap;rounded=0;" vertex="1" parent="1">
          <mxGeometry x="290" y="3020" width="60" height="30" as="geometry" />
        </mxCell>
        <mxCell id="Kporj4aN2ORfp6ikIdKQ-148" value="pacientes,&lt;div&gt;consultorios,&lt;/div&gt;&lt;div&gt;turno_maÃ±ana,&lt;/div&gt;&lt;div&gt;consultas_activas&lt;/div&gt;" style="shape=document;whiteSpace=wrap;html=1;boundedLbl=1;" vertex="1" parent="1">
          <mxGeometry x="387" y="3130" width="134" height="100" as="geometry" />
        </mxCell>
        <mxCell id="Kporj4aN2ORfp6ikIdKQ-150" value="no" style="text;html=1;align=center;verticalAlign=middle;whiteSpace=wrap;rounded=0;" vertex="1" parent="1">
          <mxGeometry x="440" y="3090" width="60" height="30" as="geometry" />
        </mxCell>
        <mxCell id="Kporj4aN2ORfp6ikIdKQ-151" value="" style="endArrow=none;html=1;rounded=0;entryX=0;entryY=0.5;entryDx=0;entryDy=0;" edge="1" parent="1" target="Kporj4aN2ORfp6ikIdKQ-138">
          <mxGeometry width="50" height="50" relative="1" as="geometry">
            <mxPoint x="70" y="2920" as="sourcePoint" />
            <mxPoint x="380" y="3000" as="targetPoint" />
          </mxGeometry>
        </mxCell>
        <mxCell id="Kporj4aN2ORfp6ikIdKQ-152" value="" style="endArrow=none;html=1;rounded=0;exitX=0.032;exitY=0.413;exitDx=0;exitDy=0;exitPerimeter=0;" edge="1" parent="1" source="Kporj4aN2ORfp6ikIdKQ-145">
          <mxGeometry width="50" height="50" relative="1" as="geometry">
            <mxPoint x="330" y="3050" as="sourcePoint" />
            <mxPoint x="70" y="3040" as="targetPoint" />
          </mxGeometry>
        </mxCell>
        <mxCell id="Kporj4aN2ORfp6ikIdKQ-153" value="" style="endArrow=none;html=1;rounded=0;entryX=0.44;entryY=0.928;entryDx=0;entryDy=0;entryPerimeter=0;" edge="1" parent="1" target="Kporj4aN2ORfp6ikIdKQ-148">
          <mxGeometry width="50" height="50" relative="1" as="geometry">
            <mxPoint x="446" y="3280" as="sourcePoint" />
            <mxPoint x="380" y="3200" as="targetPoint" />
          </mxGeometry>
        </mxCell>
      </root>
    </mxGraphModel>
  </diagram>
</mxfile>
